 <svg  version="1.0" xmlns="http://www.w3.org/2000/svg"  width="200" height="200" viewBox="0 0 700 700"  preserveAspectRatio="xMidYMid meet">  <g transform="translate(0.000000,300.000000) scale(0.100000,-0.100000)" fill="#4318dc" stroke="none"> <path d="M1160 2265 l-335 -335 71 -71 70 -70 132 133 132 133 65 -65 65 -65 -132 -132 -133 -133 70 -70 70 -70 132 132 133 133 62 -63 63 -62 -133 -133 -132 -132 70 -70 70 -70 337 338 338 337 -70 70 -70 70 -135 -135 -135 -135 -63 62 -62 63 135 135 135 135 -70 70 -70 70 -135 -135 -135 -135 -65 65 -66 65 137 133 136 133 -68 70 c-38 38 -71 69 -74 69 -3 0 -156 -151 -340 -335z m380 249 c54 -49 52 -54 -69 -176 -61 -62 -113 -120 -116 -129 -9 -26 17 -69 69 -117 73 -67 85 -63 223 72 l117 114 28 -20 c29 -20 64 -65 57 -73 -2 -2 -55 -55 -116 -118 -71 -72 -113 -122 -113 -135 0 -23 68 -107 109 -134 14 -10 34 -18 44 -18 10 0 72 52 136 115 65 63 122 115 127 115 10 0 64 -54 78 -78 5 -8 -96 -115 -298 -317 -168 -168 -310 -305 -316 -305 -6 0 -29 19 -50 43 l-39 42 104 105 c57 58 111 118 119 134 17 34 12 48 -42 108 -42 47 -84 70 -109 61 -10 -4 -67 -54 -126 -112 -59 -58 -113 -108 -118 -110 -10 -3 -89 67 -89 79 0 3 52 58 115 123 85 87 115 124 115 142 0 18 -18 45 -58 85 -84 87 -90 86 -231 -50 -63 -61 -119 -110 -124 -110 -16 0 -77 61 -77 77 0 16 591 613 608 613 7 0 26 -12 42 -26z"/> <path d="M525 1056 c-70 -31 -125 -124 -125 -212 0 -56 38 -140 85 -188 50 -52 89 -67 113 -43 14 14 14 29 4 124 -7 59 -12 132 -12 161 0 37 -3 51 -11 46 -8 -5 -10 -42 -6 -123 3 -64 7 -122 9 -130 6 -28 -30 -22 -68 11 -42 37 -84 118 -84 163 0 89 49 154 122 162 37 4 49 1 75 -21 62 -52 67 -138 13 -196 -34 -36 -35 -40 -16 -40 14 0 50 38 71 74 7 12 9 -19 6 -103 -3 -132 1 -142 44 -93 19 21 24 23 25 10 0 -10 11 -25 25 -34 21 -14 31 -15 51 -6 18 9 29 9 43 0 26 -16 68 -2 88 30 9 15 26 37 37 50 15 16 16 22 5 22 -8 0 -20 9 -27 20 -14 23 -50 27 -58 5 -4 -8 -12 -15 -20 -15 -8 0 -22 -17 -31 -37 -10 -21 -18 -39 -19 -41 -6 -10 -46 23 -60 50 l-16 31 -34 -39 -33 -39 -1 36 c0 20 12 62 26 93 33 73 44 173 20 182 -9 3 -23 1 -31 -6 -13 -10 -15 -9 -15 9 0 30 -26 78 -49 91 -27 14 -110 12 -146 -4z m228 -140 c3 -8 -2 -45 -11 -82 l-17 -69 -3 60 c-3 64 3 105 17 105 5 0 11 -6 14 -14z m191 -211 c3 -8 12 -15 21 -15 19 0 20 -16 0 -24 -17 -6 -45 19 -45 40 0 19 16 18 24 -1z"/> <path d="M1712 1039 c-156 -78 -270 -295 -202 -382 11 -14 29 -28 38 -31 31 -10 111 20 159 60 43 35 46 36 39 14 -15 -51 -19 -167 -6 -175 19 -12 43 24 28 42 -10 13 -7 84 8 183 l5 35 -18 -22 c-63 -77 -142 -95 -187 -42 -50 59 -27 157 55 236 106 102 198 83 119 -24 -36 -49 -70 -73 -105 -73 -27 0 -35 26 -13 48 9 9 8 12 -5 12 -18 0 -47 -48 -47 -78 0 -67 131 -3 206 99 22 30 37 62 38 82 1 30 -1 32 -34 35 -21 1 -53 -6 -78 -19z"/> <path d="M1283 758 c-27 -30 -43 -62 -43 -87 0 -12 -4 -21 -9 -21 -10 0 -56 52 -64 72 -4 9 -15 2 -35 -21 -30 -35 -52 -35 -52 0 0 24 -22 25 -44 1 -15 -17 -15 -21 0 -50 23 -48 35 -49 70 -8 l33 38 6 -25 c4 -14 16 -34 26 -43 17 -15 25 -16 50 -7 16 7 45 9 63 6 29 -4 40 0 72 30 22 20 36 39 32 43 -5 4 -16 0 -26 -9 -19 -17 -53 -23 -65 -11 -3 4 4 21 17 38 13 17 27 41 31 54 5 18 3 22 -18 22 -13 0 -33 -10 -44 -22z m27 -21 c0 -7 -7 -22 -15 -33 -14 -18 -14 -18 -15 7 0 14 3 29 7 32 11 11 23 8 23 -6z"/> <path d="M2481 745 c-17 -20 -31 -45 -31 -56 0 -12 -10 -33 -21 -47 l-22 -27 6 43 c5 40 -7 58 -19 27 -7 -17 -40 -20 -49 -5 -8 14 13 50 30 50 7 0 15 -5 17 -11 2 -5 11 -7 21 -3 27 10 16 39 -16 42 -24 3 -38 -7 -83 -53 -45 -46 -58 -54 -70 -45 -7 7 -14 19 -14 26 0 19 -16 18 -24 -1 -6 -17 -42 -20 -51 -5 -20 33 26 65 53 38 16 -16 37 4 29 26 -19 50 -137 -29 -137 -92 0 -41 32 -53 64 -23 28 26 36 26 36 1 0 -27 41 -27 66 1 l18 20 8 -20 c10 -27 47 -27 82 0 37 29 34 7 -10 -75 -39 -74 -43 -130 -12 -150 34 -21 51 14 56 113 3 69 8 94 22 106 15 14 18 14 30 0 21 -25 63 -18 106 19 21 19 36 37 32 42 -5 4 -16 0 -26 -9 -25 -23 -59 -21 -72 2 -13 25 -13 58 1 66 18 12 23 -4 10 -32 l-11 -28 25 28 c14 15 25 37 25 48 0 31 -35 23 -69 -16z m-85 -230 c-8 -51 -26 -61 -26 -14 0 32 18 75 27 65 3 -3 2 -26 -1 -51z"/> <path d="M1852 740 c-36 -22 -68 -79 -59 -104 11 -27 37 -30 67 -8 27 21 28 21 33 2 7 -28 43 -25 74 6 26 26 25 46 -2 24 -12 -10 -18 -10 -30 0 -9 7 -14 19 -11 27 7 18 -9 17 -24 -2 -14 -17 -51 -17 -57 0 -2 6 3 19 11 30 12 16 18 17 39 8 20 -10 28 -9 37 2 30 36 -26 47 -78 15z"/> <path d="M1977 732 c-22 -25 -21 -32 4 -32 20 0 21 -4 15 -45 -7 -43 -6 -45 18 -45 33 0 38 10 24 48 -14 36 -6 51 17 32 13 -11 20 -9 40 10 24 23 24 24 5 37 -22 15 -59 3 -61 -20 0 -7 -4 -2 -9 11 -11 27 -31 28 -53 4z"/> </g> </svg> 