<svg version="1.1" id="Layer_1" xmlns="http://www.w3.org/2000/svg" xmlns:xlink="http://www.w3.org/1999/xlink" x="0px" y="0px"
	 width="70" height="59" viewBox="0 0 638 638" enable-background="new 0 0 638 638" xml:space="preserve">
<path fill="#FFFFFF" opacity="1.000000" stroke="none" 
	d="
M354.000000,639.000000 
	C236.000015,639.000000 118.500046,639.000000 1.000047,639.000000 
	C1.000031,426.333405 1.000031,213.666779 1.000016,1.000133 
	C213.666565,1.000089 426.333130,1.000089 638.999756,1.000044 
	C638.999878,213.666519 638.999878,426.333038 638.999939,638.999756 
	C544.166687,639.000000 449.333344,639.000000 354.000000,639.000000 
M544.305176,224.884354 
	C544.543640,224.584991 544.782104,224.285629 545.040283,223.599640 
	C545.040283,223.599640 545.037903,223.212509 545.666748,222.940201 
	C574.690002,193.763779 603.713196,164.587357 633.086121,135.059418 
	C631.842041,134.966766 631.205750,134.877960 630.569397,134.877884 
	C573.455505,134.871017 516.341614,134.843597 459.228088,134.983734 
	C457.220886,134.988663 454.753784,136.191284 453.285492,137.634064 
	C440.340363,150.354294 427.589783,163.272232 414.749054,176.099045 
	C399.439758,191.391800 384.098328,206.652359 368.195374,222.021805 
	C367.778107,222.612762 367.360840,223.203720 366.346466,223.663605 
	C365.569000,223.458237 364.791504,223.252869 363.953094,222.361084 
	C363.501129,221.872711 363.065063,221.368454 362.594971,220.898178 
	C305.034393,163.311951 247.472260,105.727242 189.899643,48.153004 
	C188.993973,47.247307 187.958313,46.471596 186.015854,44.805325 
	C184.829346,46.473206 183.955292,48.152908 182.679047,49.430992 
	C126.441086,105.749817 70.168610,162.034164 13.892465,218.314865 
	C12.604348,219.603104 11.226792,220.801926 9.350282,222.087814 
	C9.072483,222.516281 8.794684,222.944748 8.516887,223.373215 
	C8.986799,223.261490 9.456712,223.149765 10.870659,223.113602 
	C27.171480,223.118179 43.472313,223.111298 59.773117,223.129684 
	C94.867409,223.169250 129.961685,223.221802 165.088638,223.697739 
	C165.088638,223.697739 165.207657,224.111099 165.281357,224.540955 
	C165.347549,224.902084 165.561829,225.051926 165.649979,225.895477 
	C165.631378,265.870941 165.598755,305.846405 165.650620,345.821777 
	C165.652496,347.269958 166.485397,348.717133 167.073029,350.493744 
	C167.201996,350.803009 167.330963,351.112274 167.762665,352.134949 
	C169.335083,353.839600 170.851318,355.600311 172.488159,357.240662 
	C211.656509,396.493530 250.837799,435.733521 290.167511,475.483734 
	C290.798492,475.669159 291.429504,475.854584 292.888672,475.706329 
	C293.116547,475.514862 293.344391,475.323395 293.763702,475.956177 
	C294.608398,477.668823 295.075287,479.758179 296.352692,481.039368 
	C335.495239,520.297791 374.716400,559.477844 413.932098,598.663269 
	C415.043396,599.773743 416.228210,600.810547 418.119843,602.571655 
	C418.119843,599.745361 418.119843,597.976807 418.119843,596.208191 
	C418.119843,551.591309 418.133606,506.974457 418.115540,462.357605 
	C418.100769,425.899811 418.048065,389.441986 418.547211,352.591705 
	C418.691101,351.727142 418.834961,350.862610 419.384888,349.473206 
	C460.805573,307.984558 502.226227,266.495911 543.697876,225.034286 
	C543.697876,225.034286 543.716675,224.977463 544.305176,224.884354 
M418.391693,603.466553 
	C418.391693,603.466553 418.519012,603.377869 418.391693,603.466553 
z"/>
<path fill="#0F82F2" opacity="1.000000" stroke="none" 
	d="
M165.055969,223.269043 
	C129.961685,223.221802 94.867409,223.169250 59.773117,223.129684 
	C43.472313,223.111298 27.171480,223.118179 10.394636,222.827026 
	C9.918614,222.540436 9.890963,222.042465 9.890963,222.042465 
	C11.226792,220.801926 12.604348,219.603104 13.892465,218.314865 
	C70.168610,162.034164 126.441086,105.749817 182.679047,49.430992 
	C183.955292,48.152908 184.829346,46.473206 186.015854,44.805325 
	C187.958313,46.471596 188.993973,47.247307 189.899643,48.153004 
	C247.472260,105.727242 305.034393,163.311951 362.594971,220.898178 
	C363.065063,221.368454 363.501129,221.872711 363.515808,222.694763 
	C298.892731,223.027344 234.706985,223.024246 170.521225,223.035370 
	C168.699463,223.035690 166.877716,223.187729 165.055969,223.269043 
z"/>
<path fill="#CD0E66" opacity="1.000000" stroke="none" 
	d="
M543.646912,225.007263 
	C502.226227,266.495911 460.805573,307.984558 418.873657,349.810242 
	C417.562012,351.102936 416.761658,352.058594 415.988953,353.015350 
	C416.016602,353.016418 416.021515,352.961273 415.746124,353.017303 
	C415.300903,353.389374 415.131073,353.705383 414.990051,354.020142 
	C415.018860,354.018890 415.021484,353.961273 414.746094,354.017212 
	C414.300873,354.389252 414.131042,354.705322 413.990051,355.020142 
	C414.018829,355.018890 414.021454,354.961273 413.746002,355.017151 
	C413.300781,355.389160 413.131012,355.705292 412.990082,356.020142 
	C413.018890,356.018890 413.021454,355.961273 412.745972,356.017090 
	C412.300751,356.389069 412.131012,356.705231 411.990051,357.020142 
	C412.018860,357.018890 412.021423,356.961273 411.745911,357.017029 
	C411.300659,357.388977 411.130981,357.705170 410.990051,358.020081 
	C411.018860,358.018860 411.021393,357.961273 410.745789,358.016907 
	C410.300537,358.388763 410.130890,358.704987 409.989990,359.020020 
	C410.018768,359.018829 410.021301,358.961273 409.745605,359.016693 
	C409.300354,359.388458 409.130798,359.704803 408.989990,360.019928 
	C409.018707,360.018738 409.021179,359.961243 408.745361,360.016418 
	C408.300079,360.388062 408.130646,360.704529 407.989868,361.019775 
	C408.018524,361.018585 408.021027,360.961212 407.745087,361.016174 
	C407.299805,361.387695 407.130463,361.704254 406.989777,362.019653 
	C407.018433,362.018463 407.020874,361.961151 406.744812,362.015930 
	C406.299561,362.387390 406.130341,362.704071 405.989746,363.019592 
	C406.018402,363.018433 406.020782,362.961151 405.744629,363.015808 
	C405.299408,363.387207 405.130280,363.703949 404.989807,364.019592 
	C405.018402,364.018433 405.020752,363.961182 404.744507,364.015686 
	C404.299286,364.387054 404.130249,364.703888 403.989807,365.019592 
	C404.018433,365.018433 404.020782,364.961243 403.744446,365.015625 
	C403.299194,365.386902 403.130249,365.703827 402.989868,366.019592 
	C403.018433,366.018402 403.020813,365.961334 402.744385,366.015472 
	C402.299072,366.386658 402.130249,366.703705 401.989929,367.019562 
	C402.018402,367.018402 402.020782,366.961395 401.744141,367.015198 
	C401.298798,367.386230 401.130096,367.703400 400.989868,368.019470 
	C401.018311,368.018341 401.020660,367.961426 400.743713,368.014771 
	C400.298340,368.385559 400.129852,368.703003 399.989807,369.019379 
	C400.018250,369.018280 400.020508,368.961426 399.743347,369.014374 
	C399.297943,369.384979 399.129669,369.702637 398.989746,370.019226 
	C399.018127,370.018127 399.020386,369.961426 398.743011,370.013977 
	C398.297577,370.384399 398.129486,370.702301 397.989746,371.019104 
	C398.018066,371.018036 398.020233,370.961426 397.742676,371.013550 
	C397.297211,371.383820 397.129333,371.701935 396.989716,372.018982 
	C397.017975,372.017944 397.020111,371.961426 396.742279,372.013184 
	C396.296753,372.383270 396.129089,372.701599 395.989655,373.018890 
	C396.017914,373.017883 396.019989,372.961426 395.741943,373.012817 
	C395.296417,373.382721 395.128937,373.701263 394.989624,374.018799 
	C395.017792,374.017792 395.019867,373.961456 394.741577,374.012390 
	C394.296021,374.382080 394.128723,374.700867 393.989563,375.018677 
	C394.017700,375.017670 394.019714,374.961456 393.741180,375.011902 
	C393.295563,375.381409 393.128479,375.700409 392.989502,376.018494 
	C393.017548,376.017578 393.019501,375.961456 392.740723,376.011414 
	C392.295105,376.380646 392.128235,376.699890 391.989380,377.018311 
	C392.017365,377.017426 392.019257,376.961395 391.740204,377.010864 
	C391.294525,377.379852 391.127899,377.699371 390.989227,378.018036 
	C391.017181,378.017212 391.018982,377.961334 390.739746,378.010406 
	C390.294067,378.379242 390.127686,378.698975 389.989136,379.017883 
	C390.017029,379.017059 390.018738,378.961273 389.739258,379.010010 
	C389.293610,379.378693 389.127441,379.698608 388.989136,380.017761 
	C389.016998,380.016998 389.018616,379.961243 388.739014,380.009705 
	C388.293365,380.378296 388.127289,380.698395 387.989075,381.017700 
	C388.016907,381.016937 388.018524,380.961273 387.738770,381.009460 
	C387.293091,381.377869 387.127197,381.698151 386.989075,382.017639 
	C387.016846,382.016876 387.018463,381.961304 386.738495,382.009155 
	C386.292786,382.377472 386.127045,382.697906 385.989075,383.017578 
	C386.016846,383.016815 386.018372,382.961334 385.738220,383.008820 
	C385.292480,383.376953 385.126892,383.697571 384.989014,384.017487 
	C385.016754,384.016785 385.018250,383.961365 384.737915,384.008484 
	C384.292175,384.376434 384.126740,384.697266 383.989014,385.017365 
	C384.016693,385.016663 384.018127,384.961334 383.737610,385.008118 
	C383.291809,385.375916 383.126556,385.696899 382.988953,386.017242 
	C383.016571,386.016571 383.017975,385.961334 382.737274,386.007782 
	C382.291504,386.375427 382.126434,386.696625 381.988922,387.017151 
	C382.016479,387.016479 382.017883,386.961365 381.737000,387.007507 
	C381.291199,387.375031 381.126312,387.696411 380.988953,388.017151 
	C381.016479,388.016479 381.017853,387.961456 380.736755,388.007263 
	C380.290985,388.374664 380.126282,388.696259 379.989014,389.017151 
	C380.016479,389.016510 380.017853,388.961548 379.736603,389.007019 
	C379.290802,389.374298 379.126221,389.696045 378.989075,390.017151 
	C379.016479,390.016479 379.017822,389.961639 378.736389,390.006775 
	C378.290527,390.373840 378.126099,390.695740 377.989014,391.017029 
	C378.016327,391.016357 378.017731,390.961700 377.736115,391.006470 
	C377.290222,391.373322 377.125916,391.695404 376.988953,392.016876 
	C377.016266,392.016266 377.017548,391.961670 376.735779,392.006042 
	C376.289856,392.372711 376.125702,392.694946 375.988831,393.016663 
	C376.016083,393.016083 376.017273,392.961609 375.735291,393.005676 
	C375.289398,393.372131 375.125458,393.694550 374.988708,394.016479 
	C375.015900,394.015961 375.017029,393.961548 374.734894,394.005310 
	C374.288971,394.371643 374.125214,394.694214 373.988586,395.016296 
	C374.015778,395.015839 374.016846,394.961487 373.734619,395.005005 
	C373.288757,395.371277 373.125122,395.693970 372.988586,396.016205 
	C373.015717,396.015747 373.016724,395.961456 372.734375,396.004761 
	C372.288452,396.370911 372.124939,396.693726 371.988525,397.016083 
	C372.015625,397.015625 372.016602,396.961426 371.734131,397.004517 
	C371.288239,397.370544 371.124817,397.693481 370.988495,398.015991 
	C371.015564,398.015594 371.016479,397.961426 370.733856,398.004211 
	C370.287964,398.370087 370.124695,398.693207 369.988464,399.015930 
	C370.015503,399.015533 370.016327,398.961426 369.733521,399.003876 
	C369.287598,399.369598 369.124481,399.692871 368.988403,400.015778 
	C369.015411,400.015411 369.016205,399.961426 368.733215,400.003540 
	C368.287323,400.369141 368.124390,400.692566 367.988373,401.015656 
	C368.015320,401.015289 368.016083,400.961426 367.732910,401.003235 
	C367.286987,401.368683 367.124237,401.692322 366.988342,402.015594 
	C367.015228,402.015259 367.015991,401.961456 366.732666,402.002991 
	C366.286743,402.368286 366.124115,402.692108 365.988342,403.015564 
	C366.015198,403.015228 366.015930,402.961517 365.732422,403.002747 
	C365.286499,403.367950 365.124054,403.691925 364.988434,404.015564 
	C365.015228,404.015228 365.015930,403.961639 364.732300,404.002563 
	C364.286346,404.367645 364.124054,404.691772 363.988525,405.015564 
	C364.015259,405.015228 364.015961,404.961761 363.732147,405.002380 
	C363.286163,405.367310 363.123993,405.691620 362.988525,406.015594 
	C363.015228,406.015259 363.015961,405.961853 362.731995,406.002136 
	C362.285980,406.366882 362.123962,406.691376 361.988556,407.015503 
	C362.015167,407.015167 362.015900,406.961945 361.731720,407.001831 
	C361.285675,407.366394 361.123810,407.691071 360.988525,408.015411 
	C361.015076,408.015106 361.015747,407.961975 360.731384,408.001526 
	C360.285339,408.365875 360.123627,408.690704 359.988464,409.015259 
	C360.014984,409.014954 360.015564,408.961945 359.731079,409.001160 
	C359.285004,409.365326 359.123444,409.690308 358.988342,410.015076 
	C359.014832,410.014832 359.015381,409.961914 358.730713,410.000793 
	C358.284637,410.364807 358.123230,410.689941 357.988220,411.014893 
	C358.014648,411.014679 358.015167,410.961853 357.730377,411.000488 
	C357.284332,411.364410 357.123047,411.689636 356.988159,412.014709 
	C357.014526,412.014557 357.014923,411.961792 356.730042,412.000183 
	C356.283997,412.363922 356.122864,412.689301 355.988037,413.014526 
	C356.014404,413.014435 356.014709,412.961731 355.729645,412.999847 
	C355.283630,413.363464 355.122650,413.688965 354.987976,414.014404 
	C355.014282,414.014313 355.014496,413.961700 354.729279,413.999512 
	C354.283264,414.362946 354.122467,414.688599 353.987915,415.014221 
	C354.014160,415.014191 354.014343,414.961700 353.728973,414.999146 
	C353.282990,415.362457 353.122345,415.688293 352.987915,416.014130 
	C353.014130,416.014099 353.014221,415.961700 352.728699,415.998840 
	C352.282684,416.362000 352.122223,416.688019 351.987885,417.014038 
	C352.014038,417.014038 352.014099,416.961731 351.728394,416.998535 
	C351.282410,417.361572 351.122101,417.687744 350.987854,418.013977 
	C351.013977,418.013977 351.013977,417.961761 350.728149,417.998291 
	C350.282104,418.361176 350.121948,418.687531 349.987854,419.013885 
	C350.013885,419.013916 350.013916,418.961823 349.727905,418.998047 
	C349.281891,419.360779 349.121857,419.687286 348.987854,420.013824 
	C349.013885,420.013855 349.013824,419.961853 348.727661,419.997772 
	C348.281616,420.360352 348.121765,420.687012 347.987823,421.013733 
	C348.013763,421.013794 348.013733,420.961884 347.727417,420.997437 
	C347.281342,421.359863 347.121613,421.686676 346.987793,422.013611 
	C347.013702,422.013702 347.013580,421.961884 346.727112,421.997131 
	C346.281036,422.359375 346.121460,422.686340 345.987701,423.013458 
	C346.013550,423.013580 346.013397,422.961853 345.726746,422.996765 
	C345.280701,423.358856 345.121277,423.686005 344.987671,424.013306 
	C345.013489,424.013458 345.013214,423.961853 344.726410,423.996460 
	C344.280334,424.358398 344.121094,424.685699 343.987610,425.013184 
	C344.013367,425.013367 344.013062,424.961853 343.726135,424.996185 
	C343.280121,425.358002 343.121033,425.685455 342.987610,426.013123 
	C343.013275,426.013306 343.012970,425.961914 342.725891,425.995941 
	C342.279846,426.357605 342.120911,426.685211 341.987610,427.013062 
	C342.013245,427.013275 342.012848,426.961975 341.725586,426.995667 
	C341.279541,427.357086 341.120758,427.684875 340.987549,428.012909 
	C341.013153,428.013153 341.012726,427.962006 340.725281,427.995331 
	C340.279236,428.356598 340.120636,428.684540 339.987488,429.012756 
	C340.013000,429.013031 340.012543,428.962036 339.724976,428.994995 
	C339.278931,429.356079 339.120483,429.684174 338.987488,430.012634 
	C339.012939,430.012970 339.012360,429.962036 338.724609,429.994629 
	C338.278564,430.355530 338.120300,430.683838 337.987427,431.012451 
	C338.012848,431.012817 338.012177,430.962036 337.724304,430.994354 
	C337.278320,431.355103 337.120178,431.683533 336.987396,432.012329 
	C337.012726,432.012726 337.011993,431.962036 336.723938,431.994080 
	C336.277954,432.354706 336.119995,432.683289 335.987335,433.012238 
	C336.012634,433.012634 336.011902,432.962036 335.723724,432.993835 
	C335.277710,433.354309 335.119904,433.683044 334.987305,434.012207 
	C335.012573,434.012634 335.011810,433.962097 334.723511,433.993591 
	C334.277496,434.353943 334.119812,434.682831 333.987366,435.012146 
	C334.012573,435.012604 334.011749,434.962128 333.723267,434.993286 
	C333.277222,435.353546 333.119720,435.682587 332.987366,436.012115 
	C333.012543,436.012573 333.011719,435.962189 332.723022,435.992981 
	C332.276947,436.353027 332.119537,436.682281 331.987305,437.012024 
	C332.012482,437.012512 332.011627,436.962219 331.722717,436.992584 
	C331.276550,437.352417 331.119354,437.681915 330.987244,438.011902 
	C331.012360,438.012421 331.011475,437.962189 330.722351,437.992157 
	C330.276184,438.351807 330.119141,438.681519 329.987183,439.011719 
	C330.012299,439.012268 330.011261,438.962097 329.721954,438.991760 
	C329.275757,439.351288 329.118866,439.681152 328.987061,440.011597 
	C329.012146,440.012146 329.011078,439.962036 328.721619,439.991394 
	C328.275421,440.350800 328.118713,440.680847 327.987030,441.011475 
	C328.012085,441.012085 328.010925,440.961975 327.721313,440.991058 
	C327.275116,441.350342 327.118530,441.680573 326.987000,442.011414 
	C327.011993,442.011993 327.010834,441.961975 326.721039,441.990723 
	C326.274841,442.349884 326.118408,442.680298 325.987000,443.011353 
	C326.011993,443.011963 326.010742,442.962006 325.720764,442.990387 
	C325.274536,443.349396 325.118256,443.679993 324.986969,444.011292 
	C325.011932,444.011963 325.010712,443.962036 324.720551,443.990051 
	C324.274261,444.348938 324.118164,444.679749 323.986969,445.011230 
	C324.011902,445.011871 324.010620,444.962006 323.720276,444.989746 
	C323.273926,445.348450 323.117950,445.679474 322.986877,446.011108 
	C323.011810,446.011780 323.010498,445.961975 322.719971,445.989441 
	C322.273621,446.348053 322.117798,446.679199 321.986877,447.011078 
	C322.011780,447.011780 322.010406,446.961945 321.719727,446.989136 
	C321.273346,447.347656 321.117645,447.678986 320.986816,448.011047 
	C321.011719,448.011749 321.010345,447.961975 320.719543,447.988892 
	C320.273163,448.347290 320.117584,448.678802 319.986877,449.010986 
	C320.011719,449.011719 320.010315,448.961975 319.719330,448.988556 
	C319.272888,449.346832 319.117462,449.678528 318.986816,450.010956 
	C319.011658,450.011688 319.010254,449.962036 318.719055,449.988220 
	C318.272583,450.346313 318.117310,450.678223 317.986816,451.010864 
	C318.011597,451.011627 318.010162,450.962036 317.718781,450.987854 
	C317.272278,451.345764 317.117157,451.677887 316.986755,452.010773 
	C317.011536,452.011566 317.010040,451.962036 316.718445,451.987488 
	C316.271912,452.345215 316.116943,452.677490 315.986694,453.010590 
	C316.011444,453.011414 316.009827,452.961945 315.718079,452.987091 
	C315.271545,453.344696 315.116699,453.677124 314.986572,454.010437 
	C315.011292,454.011292 315.009644,453.961853 314.717743,453.986694 
	C314.271149,454.344177 314.116455,454.676788 313.986450,455.010315 
	C314.011169,455.011230 314.009460,454.961792 313.717407,454.986328 
	C313.270813,455.343658 313.116272,455.676453 312.986420,456.010193 
	C313.011139,456.011169 313.009369,455.961731 312.717133,455.985992 
	C312.270477,456.343201 312.116058,456.676147 311.986328,457.010071 
	C312.011017,457.011047 312.009186,456.961670 311.716766,456.985596 
	C311.270111,457.342651 311.115845,457.675812 310.986267,458.009949 
	C311.010956,458.010956 311.009033,457.961639 310.716461,457.985229 
	C310.269775,458.342163 310.115662,458.675476 309.986206,459.009857 
	C310.010864,459.010895 310.008911,458.961578 309.716187,458.984894 
	C309.269470,459.341705 309.115509,459.675232 308.986176,460.009796 
	C309.010834,460.010864 309.008820,459.961548 308.715942,459.984619 
	C308.269226,460.341370 308.115356,460.675049 307.986145,461.009735 
	C308.010773,461.010773 308.008728,460.961517 307.715729,460.984375 
	C307.269012,461.341034 307.115295,461.674835 306.986145,462.009705 
	C307.010742,462.010773 307.008698,461.961548 306.715485,461.984039 
	C306.268738,462.340576 306.115173,462.674591 305.986176,463.009705 
	C306.010742,463.010742 306.008667,462.961609 305.715210,462.983704 
	C305.268433,463.340057 305.115051,463.674347 304.986206,464.009674 
	C305.010712,464.010742 305.008667,463.961700 304.715027,463.983337 
	C304.268158,464.339539 304.114960,464.674072 303.986267,465.009705 
	C304.010712,465.010773 304.008667,464.961823 303.714783,464.983063 
	C303.267883,465.339050 303.114868,465.673798 302.986267,466.009644 
	C303.010712,466.010712 303.008606,465.961853 302.714539,465.982727 
	C302.267578,466.338531 302.114716,466.673492 301.986206,467.009521 
	C302.010620,467.010590 302.008484,466.961823 301.714233,466.982361 
	C301.267242,467.337982 301.114471,467.673096 300.986115,468.009338 
	C301.010498,468.010529 301.008270,467.961731 300.713867,467.981934 
	C300.266876,468.337433 300.114227,468.672668 299.985992,469.009186 
	C300.010376,469.010437 300.008118,468.961639 299.713562,468.981567 
	C299.266541,469.336945 299.114044,469.672363 298.985931,470.009064 
	C299.010345,470.010315 299.007904,469.961548 298.713226,469.981201 
	C298.266174,470.336426 298.113831,470.672028 297.985840,471.008911 
	C298.010223,471.010223 298.007721,470.961487 297.712891,470.980835 
	C297.265839,471.335968 297.113647,471.671722 296.985779,472.008820 
	C297.010162,472.010162 297.007568,471.961456 296.712585,471.980530 
	C296.265533,472.335541 296.113464,472.671448 295.985718,473.008698 
	C296.010040,473.010040 296.007416,472.961395 295.712341,472.980255 
	C295.265259,473.335175 295.113312,473.671204 294.986877,474.009979 
	C295.012451,474.012695 295.016083,473.961426 294.684082,474.000732 
	C294.055786,474.370026 293.759521,474.700012 293.478882,475.014648 
	C293.494568,474.999237 293.516632,475.037170 293.334351,474.597290 
	C293.099335,473.328308 293.000519,472.499237 293.000458,471.670135 
	C292.992828,390.775085 292.990936,309.880066 293.007629,228.985016 
	C293.007874,227.723495 293.242004,226.462021 293.388641,224.981949 
	C315.527771,224.981949 337.318085,224.997543 359.108337,224.961639 
	C361.749878,224.957291 364.390961,224.675156 367.495667,224.576385 
	C424.368958,224.644577 480.778870,224.654480 537.188782,224.685852 
	C539.341553,224.687057 541.494202,224.895432 543.646912,225.007263 
z"/>
<path fill="#6F27CC" opacity="1.000000" stroke="none" 
	d="
M293.516632,475.037170 
	C293.516632,475.037170 293.494568,474.999237 293.886841,475.192627 
	C294.524750,474.911133 294.770416,474.436279 295.016083,473.961426 
	C295.016083,473.961426 295.012451,474.012695 295.344055,474.105530 
	C295.786255,473.786011 295.896851,473.373718 296.007416,472.961395 
	C296.007416,472.961395 296.010040,473.010040 296.343048,473.104553 
	C296.786560,472.786560 296.897064,472.373993 297.007568,471.961456 
	C297.007568,471.961456 297.010162,472.010162 297.343262,472.104919 
	C297.786804,471.786926 297.897247,471.374207 298.007690,470.961487 
	C298.007721,470.961487 298.010223,471.010223 298.343506,471.105255 
	C298.787140,470.787384 298.897522,470.374451 299.007935,469.961548 
	C299.007904,469.961548 299.010345,470.010315 299.343689,470.105621 
	C299.787384,469.787811 299.897736,469.374725 300.008118,468.961639 
	C300.008118,468.961639 300.010376,469.010437 300.344299,469.106812 
	C300.788239,468.789398 300.898254,468.375549 301.008270,467.961731 
	C301.008270,467.961731 301.010498,468.010529 301.344574,468.107239 
	C301.788605,467.789917 301.898529,467.375885 302.008484,466.961823 
	C302.008484,466.961823 302.010620,467.010590 302.344849,467.107666 
	C302.788940,466.790466 302.898773,466.376160 303.008606,465.961853 
	C303.008606,465.961853 303.010712,466.010712 303.345093,466.108032 
	C303.789215,465.790833 303.898956,465.376343 304.008667,464.961823 
	C304.008667,464.961823 304.010712,465.010773 304.345215,465.108307 
	C304.789368,464.791138 304.899017,464.376404 305.008667,463.961700 
	C305.008667,463.961700 305.010712,464.010742 305.345337,464.108521 
	C305.789490,463.791382 305.899078,463.376495 306.008667,462.961609 
	C306.008667,462.961609 306.010742,463.010742 306.345428,463.108765 
	C306.789642,462.791718 306.899170,462.376617 307.008667,461.961548 
	C307.008698,461.961548 307.010742,462.010773 307.345520,462.109070 
	C307.789764,461.792053 307.899231,461.376801 308.008728,460.961517 
	C308.008728,460.961517 308.010773,461.010773 308.345703,461.109436 
	C308.790039,460.792572 308.899445,460.377075 309.008820,459.961548 
	C309.008820,459.961548 309.010834,460.010864 309.345917,460.109863 
	C309.790283,459.793091 309.899597,459.377319 310.008911,458.961578 
	C310.008911,458.961578 310.010864,459.010895 310.346130,459.110260 
	C310.790619,458.793640 310.899841,458.377625 311.009033,457.961639 
	C311.009033,457.961639 311.010956,458.010956 311.346375,458.110596 
	C311.790894,457.794067 311.900055,457.377869 312.009186,456.961670 
	C312.009186,456.961670 312.011017,457.011047 312.346558,457.110962 
	C312.791168,456.794525 312.900269,456.378113 313.009369,455.961731 
	C313.009369,455.961731 313.011139,456.011169 313.347168,456.112122 
	C313.791962,455.795990 313.900696,455.378906 314.009460,454.961792 
	C314.009460,454.961792 314.011169,455.011230 314.347412,455.112549 
	C314.792297,454.796539 314.900970,454.379181 315.009644,453.961853 
	C315.009644,453.961853 315.011292,454.011292 315.347656,454.112976 
	C315.792664,453.797119 315.901245,453.379517 316.009827,452.961945 
	C316.009827,452.961945 316.011444,453.011414 316.347961,453.113434 
	C316.792969,452.797638 316.901520,452.379852 317.010071,451.962036 
	C317.010040,451.962036 317.011536,452.011566 317.348145,452.113831 
	C317.793243,451.798096 317.901703,451.380066 318.010162,450.962036 
	C318.010162,450.962036 318.011597,451.011627 318.348358,451.114136 
	C318.793488,450.798431 318.901855,450.380249 319.010254,449.962036 
	C319.010254,449.962036 319.011658,450.011688 319.348511,450.114380 
	C319.793701,449.798706 319.902008,449.380341 320.010315,448.961975 
	C320.010315,448.961975 320.011719,449.011719 320.348694,449.114716 
	C320.793915,448.799133 320.902130,448.380554 321.010345,447.961975 
	C321.010345,447.961975 321.011719,448.011749 321.348816,448.115051 
	C321.794098,447.799561 321.902252,447.380768 322.010376,446.961945 
	C322.010406,446.961945 322.011780,447.011780 322.348999,447.115417 
	C322.794342,446.799988 322.902405,446.380981 323.010498,445.961975 
	C323.010498,445.961975 323.011810,446.011780 323.349243,446.115723 
	C323.794647,445.800476 323.902649,445.381226 324.010620,444.962006 
	C324.010620,444.962006 324.011902,445.011871 324.349457,445.116150 
	C324.794891,444.800934 324.902802,444.381500 325.010712,443.962036 
	C325.010712,443.962036 325.011932,444.011963 325.350006,444.117249 
	C325.795654,443.802368 325.903198,443.382202 326.010742,442.962006 
	C326.010742,442.962006 326.011993,443.011963 326.350189,443.117554 
	C326.795868,442.802765 326.903351,442.382355 327.010834,441.961975 
	C327.010834,441.961975 327.011993,442.011993 327.350342,442.117920 
	C327.796082,441.803192 327.903503,441.382599 328.010925,440.961975 
	C328.010925,440.961975 328.012085,441.012085 328.350525,441.118317 
	C328.796356,440.803711 328.903717,440.382874 329.011078,439.962036 
	C329.011078,439.962036 329.012146,440.012146 329.350739,440.118713 
	C329.796631,439.804230 329.903961,439.383148 330.011261,438.962097 
	C330.011261,438.962097 330.012299,439.012268 330.351074,439.119202 
	C330.797028,438.804810 330.904266,438.383514 331.011475,437.962189 
	C331.011475,437.962189 331.012360,438.012421 331.351257,438.119629 
	C331.797333,437.805267 331.904480,437.383759 332.011627,436.962219 
	C332.011627,436.962219 332.012482,437.012512 332.351440,437.119934 
	C332.797516,436.805664 332.904602,436.383911 333.011719,435.962189 
	C333.011719,435.962189 333.012543,436.012573 333.351624,436.120178 
	C333.797699,435.805908 333.904724,435.384033 334.011749,434.962128 
	C334.011749,434.962128 334.012573,435.012604 334.351624,435.120422 
	C334.797729,434.806183 334.904755,434.384125 335.011810,433.962097 
	C335.011810,433.962097 335.012573,434.012634 335.351654,434.120514 
	C335.797791,433.806274 335.904846,433.384155 336.011902,432.962036 
	C336.011902,432.962036 336.012634,433.012634 336.351654,433.120575 
	C336.797791,432.806366 336.904907,432.384186 337.011993,431.962036 
	C337.011993,431.962036 337.012726,432.012726 337.351715,432.120575 
	C337.797852,431.806305 337.905029,431.384155 338.012177,430.962036 
	C338.012177,430.962036 338.012848,431.012817 338.351746,431.120544 
	C338.797913,430.806213 338.905151,430.384125 339.012390,429.962036 
	C339.012360,429.962036 339.012939,430.012970 339.351776,430.120605 
	C339.797913,429.806152 339.905243,429.384094 340.012543,428.962036 
	C340.012543,428.962036 340.013000,429.013031 340.351776,429.120483 
	C340.797943,428.805969 340.905334,428.384003 341.012726,427.962006 
	C341.012726,427.962006 341.013153,428.013153 341.351837,428.120483 
	C341.797974,427.805878 341.905426,427.383942 342.012878,426.961975 
	C342.012848,426.961975 342.013245,427.013275 342.351837,427.120483 
	C342.797943,426.805756 342.905457,426.383820 343.012970,425.961914 
	C343.012970,425.961914 343.013275,426.013306 343.351868,426.120422 
	C343.798004,425.805664 343.905548,425.383759 344.013062,424.961853 
	C344.013062,424.961853 344.013367,425.013367 344.351807,425.120453 
	C344.797913,424.805634 344.905548,424.383728 345.013184,423.961853 
	C345.013214,423.961853 345.013489,424.013458 345.351868,424.120422 
	C345.798004,423.805542 345.905701,423.383698 346.013397,422.961853 
	C346.013397,422.961853 346.013550,423.013580 346.351898,423.120422 
	C346.798035,422.805481 346.905792,422.383667 347.013550,421.961884 
	C347.013580,421.961884 347.013702,422.013702 347.351990,422.120483 
	C347.798096,421.805481 347.905914,421.383667 348.013733,420.961884 
	C348.013733,420.961884 348.013763,421.013794 348.351990,421.120483 
	C348.798096,420.805389 348.905945,420.383606 349.013824,419.961853 
	C349.013824,419.961853 349.013885,420.013855 349.352051,420.120453 
	C349.798126,419.805298 349.906036,419.383575 350.013916,418.961823 
	C350.013916,418.961823 350.013885,419.013916 350.352051,419.120453 
	C350.798126,418.805237 350.906067,418.383514 351.013977,417.961761 
	C351.013977,417.961761 351.013977,418.013977 351.352081,418.120453 
	C351.798157,417.805206 351.906128,417.383453 352.014099,416.961731 
	C352.014099,416.961731 352.014038,417.014038 352.352081,417.120483 
	C352.798157,416.805176 352.906189,416.383423 353.014221,415.961700 
	C353.014221,415.961700 353.014130,416.014099 353.352112,416.120483 
	C353.798157,415.805115 353.906250,415.383423 354.014343,414.961700 
	C354.014343,414.961700 354.014160,415.014191 354.352081,415.120422 
	C354.798187,414.805023 354.906342,414.383362 355.014496,413.961700 
	C355.014496,413.961700 355.014282,414.014313 355.352112,414.120453 
	C355.798187,413.804962 355.906433,413.383362 356.014709,412.961731 
	C356.014709,412.961731 356.014404,413.014435 356.352173,413.120483 
	C356.798248,412.804962 356.906586,412.383362 357.014923,411.961792 
	C357.014923,411.961792 357.014526,412.014557 357.352234,412.120544 
	C357.798370,411.804962 357.906769,411.383423 358.015167,410.961853 
	C358.015167,410.961853 358.014648,411.014679 358.352325,411.120575 
	C358.798462,410.804962 358.906921,410.383423 359.015381,409.961914 
	C359.015381,409.961914 359.014832,410.014832 359.352448,410.120605 
	C359.798584,409.804901 359.907074,409.383423 360.015564,408.961945 
	C360.015564,408.961945 360.014984,409.014954 360.352539,409.120605 
	C360.798645,408.804840 360.907196,408.383423 361.015747,407.961975 
	C361.015747,407.961975 361.015076,408.015106 361.352539,408.120605 
	C361.798645,407.804718 361.907257,407.383331 362.015869,406.961945 
	C362.015900,406.961945 362.015167,407.015167 362.352539,407.120514 
	C362.798615,406.804535 362.907288,406.383179 363.015961,405.961853 
	C363.015961,405.961853 363.015228,406.015259 363.352539,406.120483 
	C363.798584,405.804382 363.907257,405.383057 364.015961,404.961761 
	C364.015961,404.961761 364.015259,405.015228 364.352509,405.120392 
	C364.798492,404.804260 364.907227,404.382935 365.015930,403.961639 
	C365.015930,403.961639 365.015228,404.015228 365.352448,404.120300 
	C365.798431,403.804108 365.907166,403.382812 366.015930,402.961517 
	C366.015930,402.961517 366.015198,403.015228 366.352386,403.120300 
	C366.798370,402.804077 366.907166,402.382751 367.015991,401.961456 
	C367.015991,401.961456 367.015228,402.015259 367.352356,402.120300 
	C367.798340,401.804016 367.907196,401.382721 368.016083,400.961426 
	C368.016083,400.961426 368.015320,401.015289 368.352356,401.120239 
	C368.798340,400.803925 368.907288,400.382690 369.016205,399.961426 
	C369.016205,399.961426 369.015411,400.015411 369.352356,400.120239 
	C369.798309,399.803833 369.907318,399.382629 370.016327,398.961426 
	C370.016327,398.961426 370.015503,399.015533 370.352417,399.120239 
	C370.798370,398.803772 370.907440,398.382599 371.016479,397.961426 
	C371.016479,397.961426 371.015564,398.015594 371.352417,398.120239 
	C371.798370,397.803741 371.907501,397.382568 372.016602,396.961426 
	C372.016602,396.961426 372.015625,397.015625 372.352448,397.120239 
	C372.798431,396.803711 372.907593,396.382568 373.016724,395.961456 
	C373.016724,395.961456 373.015717,396.015747 373.352509,396.120300 
	C373.798492,395.803741 373.907654,395.382599 374.016846,394.961487 
	C374.016846,394.961487 374.015778,395.015839 374.352539,395.120361 
	C374.798523,394.803772 374.907776,394.382660 375.017029,393.961548 
	C375.017029,393.961548 375.015900,394.015961 375.352600,394.120392 
	C375.798615,393.803741 375.907959,393.382690 376.017273,392.961609 
	C376.017273,392.961609 376.016083,393.016083 376.352661,393.120422 
	C376.798676,392.803741 376.908112,392.382690 377.017548,391.961670 
	C377.017548,391.961670 377.016266,392.016266 377.352783,392.120422 
	C377.798767,391.803589 377.908264,391.382660 378.017731,390.961700 
	C378.017731,390.961700 378.016327,391.016357 378.352814,391.120361 
	C378.798798,390.803467 378.908295,390.382538 379.017822,389.961639 
	C379.017822,389.961639 379.016479,390.016479 379.352875,390.120300 
	C379.798798,389.803253 379.908325,389.382416 380.017853,388.961548 
	C380.017853,388.961548 380.016479,389.016510 380.352844,389.120239 
	C380.798737,388.803131 380.908295,388.382294 381.017853,387.961456 
	C381.017853,387.961456 381.016479,388.016479 381.352783,388.120178 
	C381.798676,387.803040 381.908295,387.382202 382.017883,386.961365 
	C382.017883,386.961365 382.016479,387.016479 382.352722,387.120178 
	C382.798615,386.803009 382.908295,386.382172 383.017975,385.961334 
	C383.017975,385.961334 383.016571,386.016571 383.352722,386.120178 
	C383.798645,385.802948 383.908417,385.382141 384.018127,384.961334 
	C384.018127,384.961334 384.016693,385.016663 384.352783,385.120117 
	C384.798645,384.802856 384.908447,384.382111 385.018250,383.961365 
	C385.018250,383.961365 385.016754,384.016785 385.352783,384.120117 
	C385.798645,383.802734 385.908508,383.382050 386.018372,382.961334 
	C386.018372,382.961334 386.016846,383.016815 386.352783,383.120056 
	C386.798645,382.802643 386.908569,382.381989 387.018463,381.961304 
	C387.018463,381.961304 387.016846,382.016876 387.352783,382.120056 
	C387.798645,381.802582 387.908569,381.381927 388.018494,380.961273 
	C388.018524,380.961273 388.016907,381.016937 388.352844,381.120056 
	C388.798706,380.802551 388.908661,380.381897 389.018616,379.961243 
	C389.018616,379.961243 389.016998,380.016998 389.352814,380.120117 
	C389.798676,379.802551 389.908691,379.381897 390.018738,378.961273 
	C390.018738,378.961273 390.017029,379.017059 390.352844,379.120178 
	C390.798767,378.802612 390.908875,378.381989 391.018982,377.961334 
	C391.018982,377.961334 391.017181,378.017212 391.352936,378.120178 
	C391.798889,377.802582 391.909088,377.381989 392.019287,376.961395 
	C392.019257,376.961395 392.017365,377.017426 392.352997,377.120239 
	C392.798920,376.802521 392.909210,376.381989 393.019501,375.961456 
	C393.019501,375.961456 393.017548,376.017578 393.353088,376.120239 
	C393.798981,375.802429 393.909332,375.381927 394.019714,374.961456 
	C394.019714,374.961456 394.017700,375.017670 394.353180,375.120209 
	C394.799072,374.802307 394.909454,374.381897 395.019867,373.961456 
	C395.019867,373.961456 395.017792,374.017792 395.353210,374.120239 
	C395.799103,373.802246 395.909546,373.381836 396.019989,372.961426 
	C396.019989,372.961426 396.017914,373.017883 396.353271,373.120300 
	C396.799133,372.802277 396.909637,372.381836 397.020111,371.961426 
	C397.020111,371.961426 397.017975,372.017944 397.353302,372.120331 
	C397.799164,371.802277 397.909698,371.381866 398.020233,370.961426 
	C398.020233,370.961426 398.018066,371.018036 398.353363,371.120361 
	C398.799225,370.802277 398.909790,370.381866 399.020386,369.961426 
	C399.020386,369.961426 399.018127,370.018127 399.353394,370.120361 
	C399.799286,369.802246 399.909912,369.381836 400.020508,368.961426 
	C400.020508,368.961426 400.018250,369.018280 400.353455,369.120422 
	C400.799286,368.802155 400.909973,368.381805 401.020660,367.961426 
	C401.020660,367.961426 401.018311,368.018341 401.353455,368.120300 
	C401.799316,367.801971 401.910034,367.381683 402.020782,366.961395 
	C402.020782,366.961395 402.018402,367.018402 402.353455,367.120239 
	C402.799255,366.801849 402.910034,366.381592 403.020813,365.961334 
	C403.020813,365.961334 403.018433,366.018402 403.353424,366.120117 
	C403.799194,365.801636 403.910004,365.381439 404.020813,364.961243 
	C404.020782,364.961243 404.018433,365.018433 404.353363,365.120056 
	C404.799133,364.801544 404.909943,364.381348 405.020752,363.961182 
	C405.020752,363.961182 405.018402,364.018433 405.353271,364.119995 
	C405.799042,363.801453 405.909912,363.381287 406.020782,362.961151 
	C406.020782,362.961151 406.018402,363.018433 406.353241,363.119995 
	C406.799011,362.801422 406.909943,362.381287 407.020874,361.961151 
	C407.020874,361.961151 407.018433,362.018463 407.353210,362.119995 
	C407.798981,361.801422 407.910004,361.381317 408.021027,360.961212 
	C408.021027,360.961212 408.018524,361.018585 408.353210,361.119965 
	C408.798981,360.801300 408.910065,360.381287 409.021179,359.961243 
	C409.021179,359.961243 409.018707,360.018738 409.353302,360.119934 
	C409.799042,359.801208 409.910156,359.381226 410.021301,358.961273 
	C410.021301,358.961273 410.018768,359.018829 410.353333,359.119873 
	C410.799042,358.801056 410.910217,358.381165 411.021393,357.961273 
	C411.021393,357.961273 411.018860,358.018860 411.353394,358.119873 
	C411.799072,357.801025 411.910248,357.381165 412.021423,356.961273 
	C412.021423,356.961273 412.018860,357.018890 412.353363,357.119873 
	C412.799072,356.800995 412.910278,356.381134 413.021454,355.961273 
	C413.021454,355.961273 413.018890,356.018890 413.353394,356.119873 
	C413.799103,355.800995 413.910278,355.381134 414.021454,354.961273 
	C414.021454,354.961273 414.018829,355.018890 414.353333,355.119812 
	C414.799072,354.800934 414.910278,354.381104 415.021484,353.961273 
	C415.021484,353.961273 415.018860,354.018890 415.353333,354.119812 
	C415.799072,353.800903 415.910309,353.381104 416.021545,352.961273 
	C416.021515,352.961273 416.016602,353.016418 416.304962,353.214905 
	C417.066284,353.270294 417.539246,353.127258 418.012207,352.984192 
	C418.048065,389.441986 418.100769,425.899811 418.115540,462.357605 
	C418.133606,506.974457 418.119843,551.591309 418.119843,596.208191 
	C418.119843,597.976807 418.119843,599.745361 418.119843,602.571655 
	C416.228210,600.810547 415.043396,599.773743 413.932098,598.663269 
	C374.716400,559.477844 335.495239,520.297791 296.352692,481.039368 
	C295.075287,479.758179 294.608398,477.668823 293.656311,475.519775 
	C293.548889,475.083374 293.516632,475.037170 293.516632,475.037170 
z"/>
<path fill="#FD8C01" opacity="1.000000" stroke="none" 
	d="
M368.770813,221.926849 
	C384.098328,206.652359 399.439758,191.391800 414.749054,176.099045 
	C427.589783,163.272232 440.340363,150.354294 453.285492,137.634064 
	C454.753784,136.191284 457.220886,134.988663 459.228088,134.983734 
	C516.341614,134.843597 573.455505,134.871017 630.569397,134.877884 
	C631.205750,134.877960 631.842041,134.966766 633.086121,135.059418 
	C603.713196,164.587357 574.690002,193.763779 544.888428,222.986969 
	C487.503357,223.021057 430.896667,223.018448 374.290039,222.950851 
	C372.449890,222.948654 370.610535,222.283157 368.770813,221.926849 
z"/>
<path fill="#22AB24" opacity="1.000000" stroke="none" 
	d="
M166.931000,350.164764 
	C166.485397,348.717133 165.652496,347.269958 165.650620,345.821777 
	C165.598755,305.846405 165.631378,265.870941 166.259766,225.481934 
	C208.112900,225.068375 249.356232,225.068375 290.650757,225.068375 
	C290.650757,266.981445 290.650757,308.310486 290.650757,349.886261 
	C288.433594,349.886261 286.616699,349.886261 284.799805,349.886261 
	C247.998550,349.886261 211.197296,349.880890 174.396042,349.898224 
	C171.907669,349.899414 169.419342,350.071930 166.931000,350.164764 
z"/>
<path fill="#18AA93" opacity="1.000000" stroke="none" 
	d="
M290.016724,474.975830 
	C250.837799,435.733521 211.656509,396.493530 172.488159,357.240662 
	C170.851318,355.600311 169.335083,353.839600 168.122192,351.945923 
	C175.310333,351.800598 182.138916,351.870880 188.967606,351.883392 
	C222.950165,351.945648 256.932770,351.992737 290.938965,352.511169 
	C290.967316,392.096741 290.983124,431.216217 290.936340,470.335663 
	C290.934479,471.882751 290.336792,473.429138 290.016724,474.975830 
z"/>
<path fill="#DFCBDF" opacity="1.000000" stroke="none" 
	d="
M293.334351,474.597290 
	C293.516632,475.037170 293.548889,475.083374 293.560577,475.107666 
	C293.344391,475.323395 293.116547,475.514862 292.430115,475.402344 
	C291.962738,435.783539 291.958649,396.468689 291.931274,357.153839 
	C291.929901,355.165680 291.727997,353.177643 291.713684,350.717133 
	C291.858551,349.915924 291.953339,349.587189 291.953522,349.258362 
	C291.976288,308.833344 291.941193,268.408112 292.084106,227.983551 
	C292.098969,223.779953 289.778442,224.052261 286.982300,224.054901 
	C246.390778,224.093338 205.799210,224.098206 165.207657,224.111099 
	C165.207657,224.111099 165.088638,223.697739 165.072296,223.483398 
	C166.877716,223.187729 168.699463,223.035690 170.521225,223.035370 
	C234.706985,223.024246 298.892731,223.027344 363.546265,223.037964 
	C364.791504,223.252869 365.569000,223.458237 366.682495,223.909744 
	C367.018494,224.155884 367.032257,224.521759 367.032257,224.521759 
	C364.390961,224.675156 361.749878,224.957291 359.108337,224.961639 
	C337.318085,224.997543 315.527771,224.981949 293.388641,224.981949 
	C293.242004,226.462021 293.007874,227.723495 293.007629,228.985016 
	C292.990936,309.880066 292.992828,390.775085 293.000458,471.670135 
	C293.000519,472.499237 293.099335,473.328308 293.334351,474.597290 
z"/>
<path fill="#A9DEAA" opacity="1.000000" stroke="none" 
	d="
M165.244507,224.326019 
	C205.799210,224.098206 246.390778,224.093338 286.982300,224.054901 
	C289.778442,224.052261 292.098969,223.779953 292.084106,227.983551 
	C291.941193,268.408112 291.976288,308.833344 291.953522,349.258362 
	C291.953339,349.587189 291.858551,349.915924 291.555237,350.816101 
	C291.113342,351.571198 290.984253,351.790436 290.915375,352.045166 
	C256.932770,351.992737 222.950165,351.945648 188.967606,351.883392 
	C182.138916,351.870880 175.310333,351.800598 167.970825,351.589233 
	C167.330963,351.112274 167.201996,350.803009 167.002014,350.329254 
	C169.419342,350.071930 171.907669,349.899414 174.396042,349.898224 
	C211.197296,349.880890 247.998550,349.886261 284.799805,349.886261 
	C286.616699,349.886261 288.433594,349.886261 290.650757,349.886261 
	C290.650757,308.310486 290.650757,266.981445 290.650757,225.068375 
	C249.356232,225.068375 208.112900,225.068375 166.396881,225.029419 
	C165.561829,225.051926 165.347549,224.902084 165.244507,224.326019 
z"/>
<path fill="#FDEADD" opacity="1.000000" stroke="none" 
	d="
M367.495667,224.576385 
	C367.032257,224.521759 367.018494,224.155884 366.981018,223.975281 
	C367.360840,223.203720 367.778107,222.612762 368.483093,221.974335 
	C370.610535,222.283157 372.449890,222.948654 374.290039,222.950851 
	C430.896667,223.018448 487.503357,223.021057 544.573975,223.123108 
	C545.037903,223.212509 545.040283,223.599640 544.776611,223.903564 
	C544.247559,224.464142 543.982117,224.720795 543.716675,224.977463 
	C543.716675,224.977463 543.697876,225.034286 543.672363,225.020782 
	C541.494202,224.895432 539.341553,224.687057 537.188782,224.685852 
	C480.778870,224.654480 424.368958,224.644577 367.495667,224.576385 
z"/>
<path fill="#87D3C7" opacity="1.000000" stroke="none" 
	d="
M290.938965,352.511200 
	C290.984253,351.790436 291.113342,351.571198 291.460999,351.288513 
	C291.727997,353.177643 291.929901,355.165680 291.931274,357.153839 
	C291.958649,396.468689 291.962738,435.783539 292.016022,475.569183 
	C291.429504,475.854584 290.798492,475.669159 290.092102,475.229797 
	C290.336792,473.429138 290.934479,471.882751 290.936340,470.335663 
	C290.983124,431.216217 290.967316,392.096741 290.938965,352.511200 
z"/>
<path fill="#DFCBDF" opacity="1.000000" stroke="none" 
	d="
M418.279724,352.787964 
	C417.539246,353.127258 417.066284,353.270294 416.277283,353.213806 
	C416.761658,352.058594 417.562012,351.102936 418.670593,350.072632 
	C418.834961,350.862610 418.691101,351.727142 418.279724,352.787964 
z"/>
<path fill="#DFCBDF" opacity="1.000000" stroke="none" 
	d="
M9.620623,222.065140 
	C9.890963,222.042465 9.918614,222.540436 9.922619,222.789246 
	C9.456712,223.149765 8.986799,223.261490 8.516886,223.373215 
	C8.794684,222.944748 9.072483,222.516281 9.620623,222.065140 
z"/>
<path fill="#DFCBDF" opacity="1.000000" stroke="none" 
	d="
M418.455353,603.422241 
	C418.519012,603.377869 418.391693,603.466553 418.455353,603.422241 
z"/>
<path fill="#DFCBDF" opacity="1.000000" stroke="none" 
	d="
M544.010925,224.930908 
	C543.982117,224.720795 544.247559,224.464142 544.766785,224.096878 
	C544.782104,224.285629 544.543640,224.584991 544.010925,224.930908 
z"/>
<path fill="#DFCBDF" opacity="1.000000" stroke="none" 
	d="
M338.724609,429.994629 
	C338.905151,430.384125 338.797913,430.806213 338.326355,431.120209 
	C338.120300,430.683838 338.278564,430.355530 338.724609,429.994629 
z"/>
<path fill="#DFCBDF" opacity="1.000000" stroke="none" 
	d="
M324.720551,443.990051 
	C324.902802,444.381500 324.794891,444.800934 324.324524,445.115479 
	C324.118164,444.679749 324.274261,444.348938 324.720551,443.990051 
z"/>
<path fill="#DFCBDF" opacity="1.000000" stroke="none" 
	d="
M337.724304,430.994354 
	C337.905029,431.384155 337.797852,431.806305 337.326385,432.120178 
	C337.120178,431.683533 337.278320,431.355103 337.724304,430.994354 
z"/>
<path fill="#DFCBDF" opacity="1.000000" stroke="none" 
	d="
M336.723938,431.994080 
	C336.904907,432.384186 336.797791,432.806366 336.326355,433.120178 
	C336.119995,432.683289 336.277954,432.354706 336.723938,431.994080 
z"/>
<path fill="#DFCBDF" opacity="1.000000" stroke="none" 
	d="
M335.723724,432.993835 
	C335.904846,433.384155 335.797791,433.806274 335.326416,434.120056 
	C335.119904,433.683044 335.277710,433.354309 335.723724,432.993835 
z"/>
<path fill="#DFCBDF" opacity="1.000000" stroke="none" 
	d="
M334.723511,433.993591 
	C334.904755,434.384125 334.797729,434.806183 334.326416,435.119965 
	C334.119812,434.682831 334.277496,434.353943 334.723511,433.993591 
z"/>
<path fill="#DFCBDF" opacity="1.000000" stroke="none" 
	d="
M333.723267,434.993286 
	C333.904724,435.384033 333.797699,435.805908 333.326416,436.119751 
	C333.119720,435.682587 333.277222,435.353546 333.723267,434.993286 
z"/>
<path fill="#DFCBDF" opacity="1.000000" stroke="none" 
	d="
M332.723022,435.992981 
	C332.904602,436.383911 332.797516,436.805664 332.326294,437.119446 
	C332.119537,436.682281 332.276947,436.353027 332.723022,435.992981 
z"/>
<path fill="#DFCBDF" opacity="1.000000" stroke="none" 
	d="
M331.722717,436.992584 
	C331.904480,437.383759 331.797333,437.805267 331.326172,438.119110 
	C331.119354,437.681915 331.276550,437.352417 331.722717,436.992584 
z"/>
<path fill="#DFCBDF" opacity="1.000000" stroke="none" 
	d="
M330.722351,437.992157 
	C330.904266,438.383514 330.797028,438.804810 330.325958,439.118652 
	C330.119141,438.681519 330.276184,438.351807 330.722351,437.992157 
z"/>
<path fill="#DFCBDF" opacity="1.000000" stroke="none" 
	d="
M329.721954,438.991760 
	C329.903961,439.383148 329.796631,439.804230 329.325684,440.118164 
	C329.118866,439.681152 329.275757,439.351288 329.721954,438.991760 
z"/>
<path fill="#DFCBDF" opacity="1.000000" stroke="none" 
	d="
M328.721619,439.991394 
	C328.903717,440.382874 328.796356,440.803711 328.325500,441.117737 
	C328.118713,440.680847 328.275421,440.350800 328.721619,439.991394 
z"/>
<path fill="#DFCBDF" opacity="1.000000" stroke="none" 
	d="
M327.721313,440.991058 
	C327.903503,441.382599 327.796082,441.803192 327.325317,442.117310 
	C327.118530,441.680573 327.275116,441.350342 327.721313,440.991058 
z"/>
<path fill="#DFCBDF" opacity="1.000000" stroke="none" 
	d="
M326.721039,441.990723 
	C326.903351,442.382355 326.795868,442.802765 326.325195,443.116943 
	C326.118408,442.680298 326.274841,442.349884 326.721039,441.990723 
z"/>
<path fill="#DFCBDF" opacity="1.000000" stroke="none" 
	d="
M325.720764,442.990387 
	C325.903198,443.382202 325.795654,443.802368 325.325043,444.116577 
	C325.118256,443.679993 325.274536,443.349396 325.720764,442.990387 
z"/>
<path fill="#DFCBDF" opacity="1.000000" stroke="none" 
	d="
M353.728973,414.999146 
	C353.906250,415.383423 353.798157,415.805115 353.325867,416.120483 
	C353.122345,415.688293 353.282990,415.362457 353.728973,414.999146 
z"/>
<path fill="#DFCBDF" opacity="1.000000" stroke="none" 
	d="
M339.724976,428.994995 
	C339.905243,429.384094 339.797913,429.806152 339.326324,430.120239 
	C339.120483,429.684174 339.278931,429.356079 339.724976,428.994995 
z"/>
<path fill="#DFCBDF" opacity="1.000000" stroke="none" 
	d="
M340.725281,427.995331 
	C340.905334,428.384003 340.797943,428.805969 340.326294,429.120239 
	C340.120636,428.684540 340.279236,428.356598 340.725281,427.995331 
z"/>
<path fill="#DFCBDF" opacity="1.000000" stroke="none" 
	d="
M341.725586,426.995667 
	C341.905426,427.383942 341.797974,427.805878 341.326233,428.120239 
	C341.120758,427.684875 341.279541,427.357086 341.725586,426.995667 
z"/>
<path fill="#DFCBDF" opacity="1.000000" stroke="none" 
	d="
M342.725891,425.995941 
	C342.905457,426.383820 342.797943,426.805756 342.326202,427.120239 
	C342.120911,426.685211 342.279846,426.357605 342.725891,425.995941 
z"/>
<path fill="#DFCBDF" opacity="1.000000" stroke="none" 
	d="
M343.726135,424.996185 
	C343.905548,425.383759 343.798004,425.805664 343.326202,426.120239 
	C343.121033,425.685455 343.280121,425.358002 343.726135,424.996185 
z"/>
<path fill="#DFCBDF" opacity="1.000000" stroke="none" 
	d="
M344.726379,423.996460 
	C344.905548,424.383728 344.797913,424.805634 344.326050,425.120270 
	C344.121094,424.685699 344.280334,424.358398 344.726379,423.996460 
z"/>
<path fill="#DFCBDF" opacity="1.000000" stroke="none" 
	d="
M345.726746,422.996765 
	C345.905701,423.383698 345.798004,423.805542 345.326050,424.120270 
	C345.121277,423.686005 345.280701,423.358856 345.726746,422.996765 
z"/>
<path fill="#DFCBDF" opacity="1.000000" stroke="none" 
	d="
M346.727112,421.997131 
	C346.905792,422.383667 346.798035,422.805481 346.326050,423.120300 
	C346.121460,422.686340 346.281036,422.359375 346.727112,421.997131 
z"/>
<path fill="#DFCBDF" opacity="1.000000" stroke="none" 
	d="
M347.727417,420.997437 
	C347.905914,421.383667 347.798096,421.805481 347.326050,422.120392 
	C347.121613,421.686676 347.281342,421.359863 347.727417,420.997437 
z"/>
<path fill="#DFCBDF" opacity="1.000000" stroke="none" 
	d="
M348.727661,419.997772 
	C348.905945,420.383606 348.798096,420.805389 348.326050,421.120422 
	C348.121765,420.687012 348.281616,420.360352 348.727661,419.997772 
z"/>
<path fill="#DFCBDF" opacity="1.000000" stroke="none" 
	d="
M349.727905,418.998047 
	C349.906036,419.383575 349.798126,419.805298 349.326050,420.120422 
	C349.121857,419.687286 349.281891,419.360779 349.727905,418.998047 
z"/>
<path fill="#DFCBDF" opacity="1.000000" stroke="none" 
	d="
M350.728149,417.998291 
	C350.906067,418.383514 350.798126,418.805237 350.325989,419.120422 
	C350.121948,418.687531 350.282104,418.361176 350.728149,417.998291 
z"/>
<path fill="#DFCBDF" opacity="1.000000" stroke="none" 
	d="
M351.728394,416.998535 
	C351.906128,417.383453 351.798157,417.805206 351.325989,418.120422 
	C351.122101,417.687744 351.282410,417.361572 351.728394,416.998535 
z"/>
<path fill="#DFCBDF" opacity="1.000000" stroke="none" 
	d="
M352.728699,415.998840 
	C352.906189,416.383423 352.798157,416.805176 352.325928,417.120483 
	C352.122223,416.688019 352.282684,416.362000 352.728699,415.998840 
z"/>
<path fill="#DFCBDF" opacity="1.000000" stroke="none" 
	d="
M308.715942,459.984619 
	C308.899445,460.377075 308.790039,460.792572 308.321106,461.108398 
	C308.115356,460.675049 308.269226,460.341370 308.715942,459.984619 
z"/>
<path fill="#DFCBDF" opacity="1.000000" stroke="none" 
	d="
M294.684082,474.000732 
	C294.770416,474.436279 294.524750,474.911133 293.871155,475.208008 
	C293.759521,474.700012 294.055786,474.370026 294.684082,474.000732 
z"/>
<path fill="#DFCBDF" opacity="1.000000" stroke="none" 
	d="
M295.712341,472.980255 
	C295.896851,473.373718 295.786255,473.786011 295.318512,474.102783 
	C295.113312,473.671204 295.265259,473.335175 295.712341,472.980255 
z"/>
<path fill="#DFCBDF" opacity="1.000000" stroke="none" 
	d="
M296.712585,471.980530 
	C296.897064,472.373993 296.786560,472.786560 296.318726,473.103210 
	C296.113464,472.671448 296.265533,472.335541 296.712585,471.980530 
z"/>
<path fill="#DFCBDF" opacity="1.000000" stroke="none" 
	d="
M297.712860,470.980835 
	C297.897247,471.374207 297.786804,471.786926 297.318909,472.103577 
	C297.113647,471.671722 297.265839,471.335968 297.712860,470.980835 
z"/>
<path fill="#DFCBDF" opacity="1.000000" stroke="none" 
	d="
M298.713257,469.981201 
	C298.897522,470.374451 298.787140,470.787384 298.319122,471.103943 
	C298.113831,470.672028 298.266174,470.336426 298.713257,469.981201 
z"/>
<path fill="#DFCBDF" opacity="1.000000" stroke="none" 
	d="
M299.713562,468.981567 
	C299.897736,469.374725 299.787384,469.787811 299.319275,470.104370 
	C299.114044,469.672363 299.266541,469.336945 299.713562,468.981567 
z"/>
<path fill="#DFCBDF" opacity="1.000000" stroke="none" 
	d="
M300.713867,467.981934 
	C300.898254,468.375549 300.788239,468.789398 300.319916,469.105591 
	C300.114227,468.672668 300.266876,468.337433 300.713867,467.981934 
z"/>
<path fill="#DFCBDF" opacity="1.000000" stroke="none" 
	d="
M301.714233,466.982361 
	C301.898529,467.375885 301.788605,467.789917 301.320190,468.106079 
	C301.114471,467.673096 301.267242,467.337982 301.714233,466.982361 
z"/>
<path fill="#DFCBDF" opacity="1.000000" stroke="none" 
	d="
M302.714539,465.982727 
	C302.898773,466.376160 302.788940,466.790466 302.320465,467.106598 
	C302.114716,466.673492 302.267578,466.338531 302.714539,465.982727 
z"/>
<path fill="#DFCBDF" opacity="1.000000" stroke="none" 
	d="
M303.714783,464.983063 
	C303.898956,465.376343 303.789215,465.790833 303.320679,466.106934 
	C303.114868,465.673798 303.267883,465.339050 303.714783,464.983063 
z"/>
<path fill="#DFCBDF" opacity="1.000000" stroke="none" 
	d="
M304.715027,463.983337 
	C304.899017,464.376404 304.789368,464.791138 304.320740,465.107239 
	C304.114960,464.674072 304.268158,464.339539 304.715027,463.983337 
z"/>
<path fill="#DFCBDF" opacity="1.000000" stroke="none" 
	d="
M305.715210,462.983704 
	C305.899078,463.376495 305.789490,463.791382 305.320801,464.107422 
	C305.115051,463.674347 305.268433,463.340057 305.715210,462.983704 
z"/>
<path fill="#DFCBDF" opacity="1.000000" stroke="none" 
	d="
M306.715454,461.984039 
	C306.899170,462.376617 306.789642,462.791718 306.320862,463.107727 
	C306.115173,462.674591 306.268738,462.340576 306.715454,461.984039 
z"/>
<path fill="#DFCBDF" opacity="1.000000" stroke="none" 
	d="
M307.715698,460.984375 
	C307.899231,461.376801 307.789764,461.792053 307.320923,462.107971 
	C307.115295,461.674835 307.269012,461.341034 307.715698,460.984375 
z"/>
<path fill="#DFCBDF" opacity="1.000000" stroke="none" 
	d="
M323.720276,444.989746 
	C323.902649,445.381226 323.794647,445.800476 323.324341,446.115082 
	C323.117950,445.679474 323.273926,445.348450 323.720276,444.989746 
z"/>
<path fill="#DFCBDF" opacity="1.000000" stroke="none" 
	d="
M309.716156,458.984894 
	C309.899597,459.377319 309.790283,459.793091 309.321259,460.108795 
	C309.115509,459.675232 309.269470,459.341705 309.716156,458.984894 
z"/>
<path fill="#DFCBDF" opacity="1.000000" stroke="none" 
	d="
M310.716461,457.985229 
	C310.899841,458.377625 310.790619,458.793640 310.321472,459.109222 
	C310.115662,458.675476 310.269775,458.342163 310.716461,457.985229 
z"/>
<path fill="#DFCBDF" opacity="1.000000" stroke="none" 
	d="
M311.716766,456.985596 
	C311.900055,457.377869 311.790894,457.794067 311.321655,458.109619 
	C311.115845,457.675812 311.270111,457.342651 311.716766,456.985596 
z"/>
<path fill="#DFCBDF" opacity="1.000000" stroke="none" 
	d="
M312.717133,455.985992 
	C312.900269,456.378113 312.791168,456.794525 312.321838,457.110016 
	C312.116058,456.676147 312.270477,456.343201 312.717133,455.985992 
z"/>
<path fill="#DFCBDF" opacity="1.000000" stroke="none" 
	d="
M313.717407,454.986328 
	C313.900696,455.378906 313.791962,455.795990 313.322449,456.111145 
	C313.116272,455.676453 313.270813,455.343658 313.717407,454.986328 
z"/>
<path fill="#DFCBDF" opacity="1.000000" stroke="none" 
	d="
M314.717773,453.986694 
	C314.900970,454.379181 314.792297,454.796539 314.322693,455.111633 
	C314.116455,454.676788 314.271149,454.344177 314.717773,453.986694 
z"/>
<path fill="#DFCBDF" opacity="1.000000" stroke="none" 
	d="
M315.718079,452.987091 
	C315.901245,453.379517 315.792664,453.797119 315.322937,454.112122 
	C315.116699,453.677124 315.271545,453.344696 315.718079,452.987091 
z"/>
<path fill="#DFCBDF" opacity="1.000000" stroke="none" 
	d="
M316.718475,451.987488 
	C316.901520,452.379852 316.792969,452.797638 316.323181,453.112610 
	C316.116943,452.677490 316.271912,452.345215 316.718475,451.987488 
z"/>
<path fill="#DFCBDF" opacity="1.000000" stroke="none" 
	d="
M317.718781,450.987854 
	C317.901703,451.380066 317.793243,451.798096 317.323395,452.113037 
	C317.117157,451.677887 317.272278,451.345764 317.718781,450.987854 
z"/>
<path fill="#DFCBDF" opacity="1.000000" stroke="none" 
	d="
M318.719055,449.988220 
	C318.901855,450.380249 318.793488,450.798431 318.323578,451.113373 
	C318.117310,450.678223 318.272583,450.346313 318.719055,449.988220 
z"/>
<path fill="#DFCBDF" opacity="1.000000" stroke="none" 
	d="
M319.719330,448.988556 
	C319.902008,449.380341 319.793701,449.798706 319.323700,450.113647 
	C319.117462,449.678528 319.272888,449.346832 319.719330,448.988556 
z"/>
<path fill="#DFCBDF" opacity="1.000000" stroke="none" 
	d="
M320.719543,447.988892 
	C320.902130,448.380554 320.793915,448.799133 320.323853,449.114014 
	C320.117584,448.678802 320.273163,448.347290 320.719543,447.988892 
z"/>
<path fill="#DFCBDF" opacity="1.000000" stroke="none" 
	d="
M321.719727,446.989136 
	C321.902252,447.380768 321.794098,447.799561 321.323914,448.114349 
	C321.117645,447.678986 321.273346,447.347656 321.719727,446.989136 
z"/>
<path fill="#DFCBDF" opacity="1.000000" stroke="none" 
	d="
M322.719971,445.989441 
	C322.902405,446.380981 322.794342,446.799988 322.324097,447.114685 
	C322.117798,446.679199 322.273621,446.348053 322.719971,445.989441 
z"/>
<path fill="#DFCBDF" opacity="1.000000" stroke="none" 
	d="
M401.744141,367.015198 
	C401.910034,367.381683 401.799316,367.801971 401.325012,368.121429 
	C401.130096,367.703400 401.298798,367.386230 401.744141,367.015198 
z"/>
<path fill="#DFCBDF" opacity="1.000000" stroke="none" 
	d="
M386.738495,382.009155 
	C386.908569,382.381989 386.798645,382.802643 386.325012,383.120850 
	C386.127045,382.697906 386.292786,382.377472 386.738495,382.009155 
z"/>
<path fill="#DFCBDF" opacity="1.000000" stroke="none" 
	d="
M387.738770,381.009460 
	C387.908569,381.381927 387.798645,381.802582 387.325012,382.120819 
	C387.127197,381.698151 387.293091,381.377869 387.738770,381.009460 
z"/>
<path fill="#DFCBDF" opacity="1.000000" stroke="none" 
	d="
M388.739014,380.009705 
	C388.908661,380.381897 388.798706,380.802551 388.324982,381.120850 
	C388.127289,380.698395 388.293365,380.378296 388.739014,380.009705 
z"/>
<path fill="#DFCBDF" opacity="1.000000" stroke="none" 
	d="
M389.739258,379.010010 
	C389.908691,379.381897 389.798676,379.802551 389.324951,380.120880 
	C389.127441,379.698608 389.293610,379.378693 389.739258,379.010010 
z"/>
<path fill="#DFCBDF" opacity="1.000000" stroke="none" 
	d="
M390.739746,378.010406 
	C390.908875,378.381989 390.798767,378.802612 390.324951,379.120972 
	C390.127686,378.698975 390.294067,378.379242 390.739746,378.010406 
z"/>
<path fill="#DFCBDF" opacity="1.000000" stroke="none" 
	d="
M391.740234,377.010864 
	C391.909088,377.381989 391.798889,377.802582 391.324982,378.121002 
	C391.127899,377.699371 391.294525,377.379852 391.740234,377.010864 
z"/>
<path fill="#DFCBDF" opacity="1.000000" stroke="none" 
	d="
M392.740723,376.011414 
	C392.909210,376.381989 392.798920,376.802521 392.325012,377.121094 
	C392.128235,376.699890 392.295105,376.380646 392.740723,376.011414 
z"/>
<path fill="#DFCBDF" opacity="1.000000" stroke="none" 
	d="
M393.741180,375.011902 
	C393.909332,375.381927 393.798981,375.802429 393.325012,376.121155 
	C393.128479,375.700409 393.295563,375.381409 393.741180,375.011902 
z"/>
<path fill="#DFCBDF" opacity="1.000000" stroke="none" 
	d="
M394.741577,374.012390 
	C394.909454,374.381897 394.799072,374.802307 394.325043,375.121216 
	C394.128723,374.700867 394.296021,374.382080 394.741577,374.012390 
z"/>
<path fill="#DFCBDF" opacity="1.000000" stroke="none" 
	d="
M395.741943,373.012817 
	C395.909546,373.381836 395.799103,373.802246 395.325073,374.121216 
	C395.128937,373.701263 395.296417,373.382721 395.741943,373.012817 
z"/>
<path fill="#DFCBDF" opacity="1.000000" stroke="none" 
	d="
M396.742279,372.013184 
	C396.909637,372.381836 396.799133,372.802277 396.325012,373.121277 
	C396.129089,372.701599 396.296753,372.383270 396.742279,372.013184 
z"/>
<path fill="#DFCBDF" opacity="1.000000" stroke="none" 
	d="
M397.742676,371.013550 
	C397.909698,371.381866 397.799164,371.802277 397.325043,372.121399 
	C397.129333,371.701935 397.297211,371.383820 397.742676,371.013550 
z"/>
<path fill="#DFCBDF" opacity="1.000000" stroke="none" 
	d="
M398.743011,370.013977 
	C398.909790,370.381866 398.799225,370.802277 398.325043,371.121460 
	C398.129486,370.702301 398.297577,370.384399 398.743011,370.013977 
z"/>
<path fill="#DFCBDF" opacity="1.000000" stroke="none" 
	d="
M399.743347,369.014374 
	C399.909912,369.381836 399.799286,369.802246 399.325043,370.121460 
	C399.129669,369.702637 399.297943,369.384979 399.743347,369.014374 
z"/>
<path fill="#DFCBDF" opacity="1.000000" stroke="none" 
	d="
M400.743713,368.014771 
	C400.909973,368.381805 400.799286,368.802155 400.325012,369.121521 
	C400.129852,368.703003 400.298340,368.385559 400.743713,368.014771 
z"/>
<path fill="#DFCBDF" opacity="1.000000" stroke="none" 
	d="
M385.738220,383.008820 
	C385.908508,383.382050 385.798645,383.802734 385.325043,384.120819 
	C385.126892,383.697571 385.292480,383.376953 385.738220,383.008820 
z"/>
<path fill="#DFCBDF" opacity="1.000000" stroke="none" 
	d="
M402.744385,366.015472 
	C402.910034,366.381592 402.799255,366.801849 402.324951,367.121399 
	C402.130249,366.703705 402.299072,366.386658 402.744385,366.015472 
z"/>
<path fill="#DFCBDF" opacity="1.000000" stroke="none" 
	d="
M403.744476,365.015625 
	C403.910004,365.381439 403.799194,365.801636 403.324860,366.121277 
	C403.130249,365.703827 403.299194,365.386902 403.744476,365.015625 
z"/>
<path fill="#DFCBDF" opacity="1.000000" stroke="none" 
	d="
M404.744507,364.015686 
	C404.909943,364.381348 404.799133,364.801544 404.324768,365.121216 
	C404.130249,364.703888 404.299286,364.387054 404.744507,364.015686 
z"/>
<path fill="#DFCBDF" opacity="1.000000" stroke="none" 
	d="
M405.744629,363.015808 
	C405.909912,363.381287 405.799042,363.801453 405.324677,364.121155 
	C405.130280,363.703949 405.299408,363.387207 405.744629,363.015808 
z"/>
<path fill="#DFCBDF" opacity="1.000000" stroke="none" 
	d="
M406.744812,362.015930 
	C406.909943,362.381287 406.799011,362.801422 406.324585,363.121155 
	C406.130341,362.704071 406.299561,362.387390 406.744812,362.015930 
z"/>
<path fill="#DFCBDF" opacity="1.000000" stroke="none" 
	d="
M407.745087,361.016174 
	C407.910004,361.381317 407.798981,361.801422 407.324554,362.121155 
	C407.130463,361.704254 407.299805,361.387695 407.745087,361.016174 
z"/>
<path fill="#DFCBDF" opacity="1.000000" stroke="none" 
	d="
M408.745331,360.016418 
	C408.910065,360.381287 408.798981,360.801300 408.324524,361.121155 
	C408.130646,360.704529 408.300079,360.388062 408.745331,360.016418 
z"/>
<path fill="#DFCBDF" opacity="1.000000" stroke="none" 
	d="
M409.745605,359.016693 
	C409.910156,359.381226 409.799042,359.801208 409.324585,360.121155 
	C409.130798,359.704803 409.300354,359.388458 409.745605,359.016693 
z"/>
<path fill="#DFCBDF" opacity="1.000000" stroke="none" 
	d="
M410.745789,358.016907 
	C410.910217,358.381165 410.799042,358.801056 410.324585,359.121094 
	C410.130890,358.704987 410.300537,358.388763 410.745789,358.016907 
z"/>
<path fill="#DFCBDF" opacity="1.000000" stroke="none" 
	d="
M411.745911,357.017029 
	C411.910248,357.381165 411.799072,357.801025 411.324585,358.121094 
	C411.130981,357.705170 411.300659,357.388977 411.745911,357.017029 
z"/>
<path fill="#DFCBDF" opacity="1.000000" stroke="none" 
	d="
M412.745972,356.017090 
	C412.910278,356.381134 412.799072,356.800995 412.324585,357.121094 
	C412.131012,356.705231 412.300751,356.389069 412.745972,356.017090 
z"/>
<path fill="#DFCBDF" opacity="1.000000" stroke="none" 
	d="
M413.746002,355.017151 
	C413.910278,355.381134 413.799103,355.800995 413.324585,356.121124 
	C413.131012,355.705292 413.300781,355.389160 413.746002,355.017151 
z"/>
<path fill="#DFCBDF" opacity="1.000000" stroke="none" 
	d="
M414.746094,354.017212 
	C414.910278,354.381104 414.799072,354.800934 414.324554,355.121094 
	C414.131042,354.705322 414.300873,354.389252 414.746094,354.017212 
z"/>
<path fill="#DFCBDF" opacity="1.000000" stroke="none" 
	d="
M415.746155,353.017303 
	C415.910309,353.381104 415.799072,353.800903 415.324524,354.121094 
	C415.131073,353.705383 415.300903,353.389374 415.746155,353.017303 
z"/>
<path fill="#DFCBDF" opacity="1.000000" stroke="none" 
	d="
M370.733887,398.004211 
	C370.907440,398.382599 370.798370,398.803772 370.325378,399.120605 
	C370.124695,398.693207 370.287964,398.370087 370.733887,398.004211 
z"/>
<path fill="#DFCBDF" opacity="1.000000" stroke="none" 
	d="
M355.729645,412.999847 
	C355.906433,413.383362 355.798187,413.804962 355.325806,414.120544 
	C355.122650,413.688965 355.283630,413.363464 355.729645,412.999847 
z"/>
<path fill="#DFCBDF" opacity="1.000000" stroke="none" 
	d="
M356.730042,412.000183 
	C356.906586,412.383362 356.798248,412.804962 356.325806,413.120605 
	C356.122864,412.689301 356.283997,412.363922 356.730042,412.000183 
z"/>
<path fill="#DFCBDF" opacity="1.000000" stroke="none" 
	d="
M357.730377,411.000488 
	C357.906769,411.383423 357.798370,411.804962 357.325867,412.120697 
	C357.123047,411.689636 357.284332,411.364410 357.730377,411.000488 
z"/>
<path fill="#DFCBDF" opacity="1.000000" stroke="none" 
	d="
M358.730713,410.000793 
	C358.906921,410.383423 358.798462,410.804962 358.325897,411.120789 
	C358.123230,410.689941 358.284637,410.364807 358.730713,410.000793 
z"/>
<path fill="#DFCBDF" opacity="1.000000" stroke="none" 
	d="
M359.731079,409.001160 
	C359.907074,409.383423 359.798584,409.804901 359.325989,410.120850 
	C359.123444,409.690308 359.285004,409.365326 359.731079,409.001160 
z"/>
<path fill="#DFCBDF" opacity="1.000000" stroke="none" 
	d="
M360.731384,408.001526 
	C360.907196,408.383423 360.798645,408.804840 360.325989,409.120911 
	C360.123627,408.690704 360.285339,408.365875 360.731384,408.001526 
z"/>
<path fill="#DFCBDF" opacity="1.000000" stroke="none" 
	d="
M361.731689,407.001831 
	C361.907257,407.383331 361.798645,407.804718 361.325989,408.120911 
	C361.123810,407.691071 361.285675,407.366394 361.731689,407.001831 
z"/>
<path fill="#DFCBDF" opacity="1.000000" stroke="none" 
	d="
M362.731995,406.002136 
	C362.907288,406.383179 362.798615,406.804535 362.325928,407.120850 
	C362.123962,406.691376 362.285980,406.366882 362.731995,406.002136 
z"/>
<path fill="#DFCBDF" opacity="1.000000" stroke="none" 
	d="
M363.732147,405.002380 
	C363.907257,405.383057 363.798584,405.804382 363.325867,406.120789 
	C363.123993,405.691620 363.286163,405.367310 363.732147,405.002380 
z"/>
<path fill="#DFCBDF" opacity="1.000000" stroke="none" 
	d="
M364.732300,404.002563 
	C364.907227,404.382935 364.798492,404.804260 364.325745,405.120728 
	C364.124054,404.691772 364.286346,404.367645 364.732300,404.002563 
z"/>
<path fill="#DFCBDF" opacity="1.000000" stroke="none" 
	d="
M365.732422,403.002747 
	C365.907166,403.382812 365.798431,403.804108 365.325653,404.120667 
	C365.124054,403.691925 365.286499,403.367950 365.732422,403.002747 
z"/>
<path fill="#DFCBDF" opacity="1.000000" stroke="none" 
	d="
M366.732666,402.002991 
	C366.907166,402.382751 366.798370,402.804077 366.325562,403.120636 
	C366.124115,402.692108 366.286743,402.368286 366.732666,402.002991 
z"/>
<path fill="#DFCBDF" opacity="1.000000" stroke="none" 
	d="
M367.732910,401.003235 
	C367.907196,401.382721 367.798340,401.804016 367.325470,402.120605 
	C367.124237,401.692322 367.286987,401.368683 367.732910,401.003235 
z"/>
<path fill="#DFCBDF" opacity="1.000000" stroke="none" 
	d="
M368.733215,400.003540 
	C368.907288,400.382690 368.798340,400.803925 368.325439,401.120605 
	C368.124390,400.692566 368.287323,400.369141 368.733215,400.003540 
z"/>
<path fill="#DFCBDF" opacity="1.000000" stroke="none" 
	d="
M369.733521,399.003876 
	C369.907318,399.382629 369.798309,399.803833 369.325348,400.120605 
	C369.124481,399.692871 369.287598,399.369598 369.733521,399.003876 
z"/>
<path fill="#DFCBDF" opacity="1.000000" stroke="none" 
	d="
M354.729279,413.999512 
	C354.906342,414.383362 354.798187,414.805023 354.325806,415.120483 
	C354.122467,414.688599 354.283264,414.362946 354.729279,413.999512 
z"/>
<path fill="#DFCBDF" opacity="1.000000" stroke="none" 
	d="
M371.734131,397.004517 
	C371.907501,397.382568 371.798370,397.803741 371.325348,398.120667 
	C371.124817,397.693481 371.288239,397.370544 371.734131,397.004517 
z"/>
<path fill="#DFCBDF" opacity="1.000000" stroke="none" 
	d="
M372.734375,396.004761 
	C372.907593,396.382568 372.798431,396.803711 372.325348,397.120667 
	C372.124939,396.693726 372.288452,396.370911 372.734375,396.004761 
z"/>
<path fill="#DFCBDF" opacity="1.000000" stroke="none" 
	d="
M373.734619,395.005005 
	C373.907654,395.382599 373.798492,395.803741 373.325378,396.120758 
	C373.125122,395.693970 373.288757,395.371277 373.734619,395.005005 
z"/>
<path fill="#DFCBDF" opacity="1.000000" stroke="none" 
	d="
M374.734863,394.005310 
	C374.907776,394.382660 374.798523,394.803772 374.325348,395.120850 
	C374.125214,394.694214 374.288971,394.371643 374.734863,394.005310 
z"/>
<path fill="#DFCBDF" opacity="1.000000" stroke="none" 
	d="
M375.735291,393.005676 
	C375.907959,393.382690 375.798615,393.803741 375.325409,394.120911 
	C375.125458,393.694550 375.289398,393.372131 375.735291,393.005676 
z"/>
<path fill="#DFCBDF" opacity="1.000000" stroke="none" 
	d="
M376.735779,392.006042 
	C376.908112,392.382690 376.798676,392.803741 376.325439,393.120972 
	C376.125702,392.694946 376.289856,392.372711 376.735779,392.006042 
z"/>
<path fill="#DFCBDF" opacity="1.000000" stroke="none" 
	d="
M377.736115,391.006470 
	C377.908264,391.382660 377.798767,391.803589 377.325470,392.121033 
	C377.125916,391.695404 377.290222,391.373322 377.736115,391.006470 
z"/>
<path fill="#DFCBDF" opacity="1.000000" stroke="none" 
	d="
M378.736389,390.006775 
	C378.908295,390.382538 378.798798,390.803467 378.325500,391.121033 
	C378.126099,390.695740 378.290527,390.373840 378.736389,390.006775 
z"/>
<path fill="#DFCBDF" opacity="1.000000" stroke="none" 
	d="
M379.736603,389.007019 
	C379.908325,389.382416 379.798798,389.803253 379.325439,390.120972 
	C379.126221,389.696045 379.290802,389.374298 379.736603,389.007019 
z"/>
<path fill="#DFCBDF" opacity="1.000000" stroke="none" 
	d="
M380.736755,388.007263 
	C380.908295,388.382294 380.798737,388.803131 380.325378,389.120911 
	C380.126282,388.696259 380.290985,388.374664 380.736755,388.007263 
z"/>
<path fill="#DFCBDF" opacity="1.000000" stroke="none" 
	d="
M381.737000,387.007507 
	C381.908295,387.382202 381.798676,387.803040 381.325256,388.120850 
	C381.126312,387.696411 381.291199,387.375031 381.737000,387.007507 
z"/>
<path fill="#DFCBDF" opacity="1.000000" stroke="none" 
	d="
M382.737274,386.007782 
	C382.908295,386.382172 382.798615,386.803009 382.325134,387.120850 
	C382.126434,386.696625 382.291504,386.375427 382.737274,386.007782 
z"/>
<path fill="#DFCBDF" opacity="1.000000" stroke="none" 
	d="
M383.737610,385.008118 
	C383.908417,385.382141 383.798645,385.802948 383.325104,386.120850 
	C383.126556,385.696899 383.291809,385.375916 383.737610,385.008118 
z"/>
<path fill="#DFCBDF" opacity="1.000000" stroke="none" 
	d="
M384.737915,384.008484 
	C384.908447,384.382111 384.798645,384.802856 384.325073,385.120850 
	C384.126740,384.697266 384.292175,384.376434 384.737915,384.008484 
z"/>
</svg>